<?xml version="1.0" encoding="UTF-8"?>
<svg xmlns="http://www.w3.org/2000/svg" viewBox="0 0 330 470" width="330" height="470" role="img" aria-label="Bank Data Dishut Sulut logo">
  <!-- Transparent background (no rect) -->

  <!-- Left leaf -->
  <path d="M60 300 C40 220 70 140 120 120 C95 160 80 200 95 245 C105 275 110 285 60 300 Z" fill="#0E79A7"/>

  <!-- Right leaf -->
  <path d="M270 300 C290 220 260 140 210 120 C235 160 250 200 235 245 C225 275 220 285 270 300 Z" fill="#106F9A"/>

  <!-- Center large leaf -->
  <path d="M165 60 C115 110 110 180 165 260 C220 180 215 110 165 60 Z" fill="#1AA0D6"/>

  <!-- Lower curved leaves -->
  <path d="M40 360 C90 330 140 330 185 360 C130 385 80 395 40 360 Z" fill="#0C75A0" opacity="0.95"/>
  <path d="M290 360 C240 330 190 330 145 360 C200 385 250 395 290 360 Z" fill="#0A6F8E" opacity="0.95"/>

  <!-- Stem -->
  <path d="M165 200 C162 230 170 260 165 300" stroke="#66C4E8" stroke-width="6" fill="none" stroke-linecap="round"/>

  <!-- Flower (stylized cloud-like white shape) -->
  <g transform="translate(135,120)">
    <path d="M30 10
             C20 -5 5 -5 0 10
             C-10 25 10 30 25 30
             C40 30 60 25 55 10
             C50 -5 40 -5 30 10 Z" fill="#FFFFFF"/>
    <!-- two small leaves under flower -->
    <path d="M15 45 C5 55 0 65 10 62 C18 60 20 52 15 45 Z" fill="#FFFFFF"/>
    <path d="M45 45 C55 55 60 65 50 62 C42 60 40 52 45 45 Z" fill="#FFFFFF"/>
  </g>

  <!-- Optional small digital blocks (decorative) -->
  <rect x="220" y="95" width="6" height="18" rx="1" fill="#9ED8EC" />
  <rect x="235" y="125" width="6" height="12" rx="1" fill="#9ED8EC" />
  <rect x="250" y="155" width="6" height="24" rx="1" fill="#9ED8EC" />

  <!-- Text (kept as text; can be converted to paths if you need) -->
  <text x="165" y="430" text-anchor="middle" font-family="Arial, Helvetica, sans-serif" font-size="20" font-weight="700" fill="#2B6F84">
    BANK DATA DISHUT SULUT
  </text>
</svg>
